<svg width="11" height="7" viewBox="0 0 11 7" fill="none" xmlns="http://www.w3.org/2000/svg">
<path fill-rule="evenodd" clip-rule="evenodd" d="M0.229137 0.226107C0.372396 0.0882766 0.564515 0.0129611 0.763277 0.0167113C0.962039 0.0204615 1.15118 0.102971 1.28914 0.246107L4.99914 4.18411L8.70914 0.246107C8.77657 0.171762 8.85825 0.11171 8.94932 0.0695091C9.04039 0.0273082 9.13901 0.00381725 9.23932 0.000427773C9.33964 -0.0029617 9.43961 0.0138191 9.53333 0.0497766C9.62704 0.0857341 9.71258 0.140137 9.78488 0.20976C9.85718 0.279383 9.91477 0.36281 9.95424 0.455099C9.9937 0.547388 10.0142 0.64666 10.0146 0.747033C10.015 0.847405 9.99529 0.946836 9.95655 1.03943C9.91781 1.13203 9.86089 1.21591 9.78914 1.28611L5.53914 5.78611C5.46918 5.85869 5.3853 5.91643 5.29252 5.95586C5.19973 5.9953 5.09995 6.01563 4.99914 6.01563C4.89832 6.01563 4.79854 5.9953 4.70576 5.95586C4.61298 5.91643 4.5291 5.85869 4.45914 5.78611L0.209138 1.28611C0.0713081 1.14285 -0.00400734 0.950729 -0.000257492 0.751967C0.00349236 0.553205 0.0860014 0.364064 0.229137 0.226107Z" fill="white"/>
</svg>
